PathFileType	4	(X/Y/Z)	c:/Users/goper/Files/vsCode/490R/osim_files/C08/C08_SSWS_02.trc
DataRate	CameraRate	NumFrames	NumMarkers	Units                	OrigDataRate	OrigDataStartFrame	OrigNumFrames
250.00	250.00	8	36	mm	250.0	2015	2686
                Frame#	Time	LPSIS			LASIS			LTH1			LTH2			LTH3			LTH4			LLFE			LMFE			LSH1			LSH2			LSH3			LSH4			LLMAL			LMMAL			LCAL			LMTP5			LTOE			LMTP1			RPSIS			RASIS			RTH1			RTH2			RTH3			RTH4			RLFE			RMFE			RSH1			RSH2			RSH3			RSH4			RLMAL			RMMAL			RCAL			RMTP1			RTOE			RMTP5		
		X1	Y1	Z1	X2	Y2	Z2	X3	Y3	Z3	X4	Y4	Z4	X5	Y5	Z5	X6	Y6	Z6	X7	Y7	Z7	X8	Y8	Z8	X9	Y9	Z9	X10	Y10	Z10	X11	Y11	Z11	X12	Y12	Z12	X13	Y13	Z13	X14	Y14	Z14	X15	Y15	Z15	X16	Y16	Z16	X17	Y17	Z17	X18	Y18	Z18	X19	Y19	Z19	X20	Y20	Z20	X21	Y21	Z21	X22	Y22	Z22	X23	Y23	Z23	X24	Y24	Z24	X25	Y25	Z25	X26	Y26	Z26	X27	Y27	Z27	X28	Y28	Z28	X29	Y29	Z29	X30	Y30	Z30	X31	Y31	Z31	X32	Y32	Z32	X33	Y33	Z33	X34	Y34	Z34	X35	Y35	Z35	X36	Y36	Z36

2015	8.05600	-2974.86841	1056.97375	162.50127	-3187.90845	1022.14185	243.36484	-3187.75928	753.20319	324.77292	-3225.42334	684.10767	315.57181	-3245.90967	612.59552	302.22287	-3289.54883	716.47247	293.76645	-3259.45337	566.42126	294.92557	-3279.50586	558.09613	168.47122	0.00000	0.00000	0.00000	0.00000	0.00000	0.00000	-3242.28149	450.44507	307.00363	-3232.09546	408.19937	307.91025	-3126.62524	147.57506	253.85098	-3167.25024	145.41197	174.23058	-3072.62573	134.67921	188.38805	-3216.47949	63.48116	303.49420	-3289.28979	72.48874	257.17117	-3263.16187	53.95229	201.87012	-2976.75195	1056.28088	102.50625	-3173.70630	1018.90906	7.11138	-3089.57080	753.63025	-43.02597	-3083.28613	675.70911	-24.03690	-3076.67334	598.90027	-14.46568	-3158.56201	676.71503	2.98483	-3071.78833	526.31909	4.89832	0.00000	0.00000	0.00000	-3006.48096	448.57712	-9.38998	-3006.12646	405.24786	-14.61297	-3073.68970	443.26199	-3.32534	-3063.12231	399.30756	-6.21086	0.00000	0.00000	0.00000	-3010.48535	108.50211	136.14569	-2917.69946	83.89079	122.84102	-3133.40771	45.46188	115.69493	-3149.76538	62.91673	62.62495	-3093.18359	46.96266	3.76449
2016	8.06000	-2978.43408	1056.75073	162.66415	-3191.62329	1021.72003	243.45596	-3192.58521	753.12415	325.09717	-3229.39209	683.97864	315.15167	-3249.97705	612.32788	301.84381	-3293.41357	716.39703	293.08362	-3263.42114	566.30060	294.22726	-3284.01294	558.59735	167.42908	0.00000	0.00000	0.00000	0.00000	0.00000	0.00000	-3248.90186	450.18427	306.77789	-3238.91919	407.14648	307.71207	-3139.18384	144.29987	253.98997	-3180.08813	142.68623	174.45973	-3085.03003	130.14568	188.20621	-3230.93945	62.26855	304.01202	-3303.64502	72.58457	257.74243	-3277.98706	53.41356	202.46062	-2979.10522	1056.29700	102.59684	-3177.16187	1018.47565	6.99104	-3092.27759	753.47723	-42.98049	-3085.81860	675.57599	-24.04778	-3078.82227	598.84052	-14.36903	-3160.99683	676.36890	3.13708	-3073.62964	526.23639	4.97389	0.00000	0.00000	0.00000	-3007.91138	448.70203	-9.27877	-3007.46338	405.37891	-14.52429	-3075.36108	443.35046	-3.22041	-3064.42773	399.25989	-6.09681	0.00000	0.00000	0.00000	-3010.64233	108.57926	136.23238	-2917.85596	84.02820	122.97289	-3134.78979	45.35023	115.28992	-3149.85132	62.82848	62.61960	-3093.18066	46.91597	3.76485
2017	8.06400	-2982.15820	1056.37500	162.81038	-3195.39380	1021.28302	243.55763	-3195.56860	752.92908	324.24820	-3233.22388	683.76331	314.69196	-3253.45752	612.20868	300.92853	-3297.13525	716.23950	292.44312	-3267.24072	566.12524	293.57428	-3287.59619	558.33783	166.79643	0.00000	0.00000	0.00000	-3200.27734	417.28864	307.43973	-3253.81763	448.86945	306.51062	-3250.62891	408.35654	309.15573	-3151.96265	141.03767	254.17288	-3193.00415	140.10765	174.74931	-3098.31714	125.47174	188.36980	-3245.34668	61.06208	304.43921	-3317.96216	72.80695	258.29807	-3292.80811	52.99675	203.06448	-2982.64380	1056.03113	102.77560	-3180.61499	1018.02814	6.83136	-3095.08887	753.29993	-42.98004	-3090.34937	676.27979	-24.44061	-3081.00537	598.74854	-14.33922	-3163.50122	676.01624	3.25449	-3075.42798	526.12573	5.14690	0.00000	0.00000	0.00000	-3012.30444	449.97302	-9.93038	-3008.79248	405.49680	-14.40311	-3077.01660	443.37531	-3.12707	-3065.68213	399.18277	-5.99825	0.00000	0.00000	0.00000	-3010.48145	108.86434	136.21629	-2918.06958	84.15063	123.09533	-3135.54590	45.36044	114.87955	-3149.95264	62.72767	62.60730	-3093.17188	46.88229	3.77377
2018	8.06800	-2985.81079	1056.05188	162.98373	-3199.12305	1020.78381	243.70824	-3200.09082	752.57214	324.53729	-3236.92065	683.52393	314.36243	-3257.00513	611.93103	300.27722	-3300.73975	715.97107	291.82712	-3270.98755	565.90356	292.97720	-3291.02856	557.99622	166.22650	0.00000	0.00000	0.00000	0.00000	0.00000	0.00000	-3259.42725	448.00784	306.29510	-3257.40991	407.31772	309.04208	-3164.77295	137.86066	254.45161	-3205.90088	137.62592	175.03468	-3113.12354	121.01859	190.06279	-3260.05225	60.04572	305.00656	-3332.28223	73.17510	258.83209	-3307.58521	52.71283	203.58855	-2986.26318	1055.71240	102.97478	-3184.14600	1017.56775	6.73152	-3097.95337	753.19427	-42.91522	-3092.97363	676.23682	-24.41957	-3083.23755	598.69196	-14.22753	-3165.96826	675.65100	3.41644	-3077.36816	526.06732	5.21880	0.00000	0.00000	0.00000	-3013.79443	450.11389	-9.80527	-3010.33008	405.55563	-14.30774	-3078.75342	443.45013	-3.03367	-3067.05298	399.13834	-5.89273	0.00000	0.00000	0.00000	-3010.70190	108.95651	136.31155	-2918.31567	84.30766	123.20595	-3135.75708	45.03141	114.92748	-3150.04639	62.64279	62.59061	-3093.16504	46.84554	3.76296
2019	8.07200	-2989.42603	1055.71228	163.10283	-3202.88330	1020.25470	243.86719	-3203.66602	752.22534	324.22681	-3240.48267	683.15924	313.92590	-3260.10913	611.33978	300.71915	-3304.24756	715.60596	291.22552	-3274.49390	565.48254	292.39438	-3294.38013	557.55060	165.64687	0.00000	0.00000	0.00000	-3213.49561	412.81113	307.19070	-3264.99585	447.17676	306.07101	-3264.14380	406.33289	308.93964	-3177.61963	134.83101	254.69096	-3218.79565	135.28003	175.30186	-3124.68018	116.64846	187.73860	-3274.57397	59.16842	305.41415	-3346.55981	73.65480	259.29184	-3322.33154	52.60578	204.09375	-2989.91431	1055.40198	103.17548	-3187.73755	1017.09460	6.63157	-3100.81787	753.07770	-42.90031	-3095.48486	676.08112	-24.34051	-3085.47241	598.58795	-14.17293	-3168.49194	675.30237	3.56505	-3079.31201	525.98761	5.32938	0.00000	0.00000	0.00000	-3015.37354	450.24884	-9.71048	-3011.71265	405.75491	-14.15741	-3080.46069	443.53760	-2.90158	-3068.40967	399.11432	-5.79530	0.00000	0.00000	0.00000	-3011.30957	108.95388	136.51300	-2918.52173	84.52474	123.32874	-3135.84668	44.97940	114.91161	-3150.15576	62.53828	62.58940	-3093.17676	46.80107	3.77921
2020	8.07600	-2993.28882	1055.32800	163.27226	-3206.61548	1019.65894	244.05074	-3206.55835	751.81720	323.49460	-3243.88037	682.73444	313.52426	-3263.66235	611.05170	299.19955	-3307.60254	715.13196	290.68680	-3277.81372	565.01202	291.83664	-3297.67163	557.10114	165.12227	0.00000	0.00000	0.00000	-3220.00977	410.53720	307.06155	-3270.49536	446.34058	305.89493	-3265.63159	403.03424	307.09161	-3190.53052	131.91901	254.97798	-3231.69312	133.13283	175.62149	-3142.76221	109.65406	186.96365	-3289.06323	58.48817	305.70129	-3360.81787	74.32887	259.68607	-3337.06494	52.71971	204.47453	-2993.48877	1055.06836	103.35695	-3191.20020	1016.59149	6.51167	-3103.70020	752.90466	-42.82758	-3096.10474	675.17615	-23.83626	-3087.74902	598.52338	-14.07029	-3171.05908	674.97821	3.74481	-3081.18457	525.89154	5.46797	0.00000	0.00000	0.00000	-3016.84863	450.40576	-9.58809	-3013.17847	405.92105	-14.05009	-3082.25977	443.67975	-2.87281	-3069.78125	399.11417	-5.71659	0.00000	0.00000	0.00000	-3011.53638	109.11774	136.64151	-2919.09302	84.69292	123.44759	-3135.94507	44.95058	114.90160	-3150.25537	62.41471	62.57005	-3093.16919	46.77486	3.77061
2021	8.08000	-2997.03564	1054.98047	163.38722	-3210.36328	1019.02240	244.24678	-3209.91943	751.33472	323.16666	-3247.21802	682.23798	313.13968	-3266.76953	610.51385	298.68289	-3310.83740	714.51770	290.20618	-3281.06738	564.45154	291.35358	-3300.83740	556.53967	164.64703	0.00000	0.00000	0.00000	-3226.51636	408.39508	307.00018	-3275.92310	445.54837	305.65210	-3271.99072	401.96841	306.93671	-3203.40259	129.17012	255.20322	-3244.52734	131.22617	175.86134	-3152.71045	108.20246	187.85164	-3303.62891	58.00015	306.05728	-3375.03613	75.16740	259.98328	-3351.72949	52.99153	204.83328	-2997.08374	1054.76892	103.53473	-3194.82300	1016.08936	6.42010	-3106.60498	752.74023	-42.81793	-3100.72925	675.86420	-24.16500	-3090.06030	598.48901	-14.01695	-3173.60767	674.62579	3.91333	-3083.16772	525.84198	5.55027	0.00000	0.00000	0.00000	-3018.42188	450.58499	-9.47889	-3014.62207	406.02603	-14.01639	-3084.01123	443.75891	-2.77343	-3071.18433	399.11758	-5.60678	0.00000	0.00000	0.00000	-3011.83301	109.30840	136.73346	-2919.04395	85.06490	123.46435	-3136.02710	44.93312	114.90440	-3150.33447	62.29426	62.55080	-3093.19336	46.75856	3.77166
2022	8.08400	-3001.42603	1054.45190	163.61284	-3214.15723	1018.34338	244.47980	-3213.18726	750.75769	322.88431	-3250.30615	681.66266	312.75333	-3269.73950	609.87714	298.27747	-3313.92139	713.86017	289.76013	-3284.12793	563.78491	290.91565	-3303.95386	555.90979	164.20390	0.00000	0.00000	0.00000	0.00000	0.00000	0.00000	-3281.28735	444.74329	305.50006	-3278.44336	401.01428	306.85562	-3216.23413	126.50655	255.52321	-3257.26831	129.47600	176.11803	-3165.15820	104.55635	188.09840	-3318.09424	57.67696	306.31061	-3389.15723	76.20319	260.18808	-3366.27808	53.50994	205.05879	-3000.94800	1054.38696	103.73738	-3198.48462	1015.62170	6.37180	-3109.50586	752.61755	-42.74240	-3101.32178	674.97552	-23.65677	-3092.32031	598.42657	-13.87627	-3176.16064	674.25787	4.11401	-3085.17310	525.85333	5.64568	0.00000	0.00000	0.00000	-3020.01025	450.82068	-9.35614	-3015.94751	406.25653	-13.91007	-3085.85229	443.96149	-2.69176	-3072.52930	399.11182	-5.51655	0.00000	0.00000	0.00000	-3012.05640	109.49801	136.80295	-2919.20972	85.36948	123.56564	-3135.67603	45.13237	114.45112	-3150.43701	62.20207	62.52110	-3093.19849	46.73396	3.76799
